<svg width="130" height="36" viewBox="0 0 130 36" fill="none" xmlns="http://www.w3.org/2000/svg">
<g clip-path="url(#clip0_61386_13444)">
<mask id="mask0_61386_13444" style="mask-type:luminance" maskUnits="userSpaceOnUse" x="2" y="2" width="33" height="31">
<path d="M34.203 2.70001H2V32.5884H34.203V2.70001Z" fill="white"></path>
</mask>
<g mask="url(#mask0_61386_13444)">
<path d="M28.1443 15.1224V22.4457C28.1443 22.6298 28.071 22.8058 27.9416 22.9352L18.428 32.4534C18.2482 32.6333 17.956 32.6333 17.7752 32.4534L8.26166 22.9352C8.13222 22.8058 8.05896 22.629 8.05896 22.4457V15.1224C8.05896 14.9311 8.21362 14.7764 8.40492 14.7764H11.429C11.6203 14.7764 11.775 14.9311 11.775 15.1224V21.1932C11.775 21.3773 11.8483 21.5532 11.9777 21.6826L17.8566 27.5644C17.9918 27.6996 18.2108 27.6996 18.3458 27.5644L24.2248 21.6826C24.3542 21.5532 24.4274 21.3765 24.4274 21.1932V15.1224C24.4274 14.9311 24.5821 14.7764 24.7734 14.7764H27.7976C27.9888 14.7764 28.1435 14.9311 28.1435 15.1224H28.1443Z" fill="black"></path>
<path d="M34.203 7.73639C34.203 8.1208 34.1648 8.49624 34.0931 8.85866C34.0036 9.30904 33.8612 9.73986 33.6723 10.1446C33.1049 11.3654 32.1191 12.3517 30.8989 12.9193C30.1679 13.2606 29.3522 13.4504 28.4918 13.4504C28.3754 13.4504 28.2589 13.4471 28.1442 13.4398V13.4504H23.4008C23.1412 13.4504 22.9303 13.6613 22.9303 13.9211V20.7012C22.9303 20.8233 22.8814 20.9414 22.7952 21.0278L18.8724 24.9516L18.428 25.3963C18.248 25.5762 17.9558 25.5762 17.775 25.3963L17.3306 24.9516L13.4428 21.0628C13.2874 20.9072 13.2727 20.864 13.2727 20.6523V13.922C13.2727 13.6621 13.0618 13.4512 12.8022 13.4512H8.05883V13.4406C7.94404 13.448 7.82764 13.4512 7.71123 13.4512C6.8508 13.4512 6.03515 13.2614 5.30415 12.9201C4.08392 12.3525 3.09812 11.3663 2.53075 10.1454C2.34189 9.74068 2.19944 9.30985 2.10989 8.85947C2.03826 8.49706 2 8.12161 2 7.73721C2 5.59121 3.18197 3.72211 4.92887 2.74562C4.94597 2.73585 4.96225 2.72607 4.97935 2.71712C5.00621 2.70653 5.03633 2.70001 5.06727 2.70001C5.19832 2.70001 5.30496 2.8067 5.30496 2.93782C5.30496 2.96226 5.30089 2.98587 5.29438 3.00868C5.29031 3.01845 5.28542 3.02904 5.28217 3.03881C5.03389 3.65044 4.89795 4.31908 4.89795 5.01948C4.89795 5.64577 5.00703 6.24681 5.20809 6.80387C5.21624 6.82668 5.22356 6.84948 5.23251 6.87147C5.25042 6.92197 5.26995 6.97165 5.29112 7.02051C5.72337 8.03609 6.69288 8.76744 7.84229 8.85866C7.91392 8.86436 8.34292 8.85866 8.34292 8.85866H16.9847C17.176 8.85866 17.3306 9.0134 17.3306 9.20479V20.2149C17.3306 20.2728 17.3534 20.3281 17.395 20.3697L17.8573 20.8323C17.9924 20.9675 18.2114 20.9675 18.3466 20.8323L18.8089 20.3697C18.8496 20.3289 18.8732 20.2728 18.8732 20.2149V9.20479C18.8732 9.0134 19.0278 8.85866 19.2192 8.85866H27.8617C27.8617 8.85866 28.2899 8.86436 28.3615 8.85866C29.5109 8.76744 30.4804 8.03609 30.9127 7.02051C30.9339 6.97165 30.9534 6.92197 30.9713 6.87147C30.9803 6.84948 30.9876 6.82668 30.9957 6.80387C31.1968 6.24681 31.3058 5.64577 31.3058 5.01948C31.3058 4.31908 31.1699 3.65044 30.9216 3.03881C30.9184 3.02904 30.9135 3.01845 30.9094 3.00868C30.9029 2.98587 30.8989 2.96226 30.8989 2.93782C30.8989 2.8067 31.0055 2.70001 31.1366 2.70001C31.1675 2.70001 31.1976 2.70653 31.2244 2.71712C31.2415 2.72607 31.2578 2.73585 31.275 2.74562C33.0219 3.72211 34.2038 5.59121 34.2038 7.73639H34.203Z" fill="black"></path>
</g>
<path d="M125.803 19.711L123.825 16.7607L121.894 19.711H118.904L122.459 14.74L119.241 10.0811H122.248L123.975 12.6632L125.726 10.0811H128.541L125.36 14.6091L128.821 19.711H125.803Z" fill="black"></path>
<path d="M110.604 19.7115V7.25037H118.182V9.60789H113.28V12.0964H117.339V14.379H113.28V17.3541H118.182V19.7115H110.604Z" fill="black"></path>
<path d="M75.7395 19.7115V7.25037H79.9119C81.1344 7.25037 82.0949 7.54349 82.7934 8.12976C83.4919 8.70355 83.8412 9.48939 83.8412 10.4873C83.8412 11.6224 83.3485 12.4955 82.3631 13.1068C83.6728 13.6306 84.3276 14.5537 84.3276 15.8759C84.3276 16.6368 84.1343 17.3042 83.7476 17.878C83.3734 18.4517 82.8558 18.9007 82.1946 19.2251C81.546 19.5494 80.7976 19.7115 79.9493 19.7115H75.7395ZM78.3403 12.3209H79.2758C79.8995 12.3209 80.3798 12.1775 80.7165 11.8906C81.0658 11.5912 81.2404 11.192 81.2404 10.6931C81.2404 9.77005 80.6667 9.30852 79.519 9.30852H78.3403V12.3209ZM78.3403 17.6347H79.5378C80.2113 17.6347 80.7352 17.4788 81.1095 17.1669C81.4961 16.8551 81.6894 16.4372 81.6894 15.9133C81.6894 15.4393 81.5273 15.0714 81.2029 14.8094C80.8912 14.5475 80.4233 14.4165 79.7997 14.4165H78.3403V17.6347Z" fill="black"></path>
<path d="M70.0241 19.9925C68.4773 19.9925 67.2549 19.5433 66.3568 18.6453C65.4587 17.7472 65.0096 16.4998 65.0096 14.9032C65.0096 13.8554 65.203 12.9511 65.5897 12.1901C65.9763 11.4292 66.519 10.843 67.2175 10.4313C67.9284 10.0197 68.758 9.8139 69.7059 9.8139C71.1031 9.8139 72.1758 10.263 72.9242 11.1611C73.6727 12.0592 74.0468 13.3564 74.0468 15.0528C74.0468 15.1651 74.0468 15.2773 74.0468 15.3896C74.0468 15.4895 74.0406 15.5892 74.0281 15.689H67.6665C67.916 17.0361 68.8079 17.7098 70.3422 17.7098C70.8162 17.7098 71.2964 17.6536 71.7828 17.5413C72.2818 17.4166 72.7183 17.2545 73.0926 17.0548L73.5229 19.1692C72.4876 19.718 71.3213 19.9925 70.0241 19.9925ZM67.6479 13.7057H71.5209C71.4835 13.1693 71.2964 12.7452 70.9596 12.4334C70.6228 12.1091 70.1737 11.9469 69.6125 11.9469C69.0761 11.9469 68.6333 12.1028 68.284 12.4147C67.9472 12.7265 67.7351 13.1569 67.6479 13.7057Z" fill="#F59505"></path>
<path d="M46.5349 19.9543C45.3001 19.9543 44.2149 19.6861 43.2793 19.1497C42.3563 18.6133 41.6328 17.8649 41.1089 16.9044C40.5975 15.9315 40.3418 14.8088 40.3418 13.5365C40.3418 12.2393 40.5975 11.1104 41.1089 10.1499C41.6328 9.18944 42.3563 8.44102 43.2793 7.90465C44.2149 7.36829 45.3001 7.1001 46.5349 7.1001C47.7698 7.1001 48.8488 7.36829 49.7718 7.90465C50.7074 8.42854 51.4309 9.17073 51.9423 10.1312C52.4538 11.0792 52.7095 12.1894 52.7095 13.4616C52.7095 14.7589 52.4538 15.8941 51.9423 16.867C51.4309 17.8399 50.7074 18.6008 49.7718 19.1497C48.8488 19.6861 47.7698 19.9543 46.5349 19.9543ZM46.5349 17.578C47.5703 17.578 48.3936 17.21 49.0048 16.474C49.616 15.7381 49.9216 14.7589 49.9216 13.5365C49.9216 12.7257 49.7781 12.0147 49.4913 11.4035C49.2168 10.7923 48.8239 10.3183 48.3124 9.98152C47.801 9.64473 47.2086 9.48258 46.5349 9.49505C45.8614 9.48258 45.2689 9.64473 44.7574 9.98152C44.2585 10.3183 43.8656 10.7923 43.5787 11.4035C43.2918 12.0147 43.1484 12.7257 43.1484 13.5365C43.1484 14.3473 43.2856 15.0583 43.56 15.6696C43.8469 16.2682 44.246 16.736 44.7574 17.0728C45.2689 17.4096 45.8614 17.578 46.5349 17.578Z" fill="#F59505"></path>
<path d="M88.509 16.0451C88.509 16.5565 88.6336 16.9557 88.8831 17.2426C89.1326 17.5169 89.4694 17.6542 89.8936 17.6542C90.3301 17.6542 90.7417 17.517 91.1284 17.2426C91.515 16.9682 91.8394 16.6002 92.1013 16.1387V10.0764H94.7395V19.7124H92.1013V19.666L92.2672 18.5048L92.1013 18.4494V18.4401C92.0994 18.4426 92.0975 18.445 92.0956 18.4475L92.0948 18.4472V18.4487C91.7716 18.8814 91.381 19.2465 90.9226 19.5439C90.4611 19.8308 89.8748 19.9742 89.1638 19.9742C88.1409 19.9742 87.3364 19.6625 86.7501 19.0387C86.1639 18.4026 85.8707 17.5481 85.8707 16.4755V10.0764H88.509V16.0451Z" fill="black"></path>
<path d="M60.143 9.81403C61.1784 9.81403 61.9891 10.1259 62.5754 10.7496C63.1616 11.3608 63.4548 12.2153 63.4548 13.3129V19.7118H60.8166V13.7245C60.8166 13.2132 60.6918 12.8202 60.4423 12.5458C60.1928 12.2714 59.8561 12.1341 59.432 12.1341C58.9205 12.1341 58.4403 12.3275 57.9913 12.7141C57.5547 13.0884 57.2179 13.5562 56.9809 14.1176V19.7118H54.3428V10.076H56.9247V10.1576L56.7077 11.6772L56.9376 11.7492V11.7198C57.3338 11.0573 57.7911 10.578 58.3094 10.2818C58.8458 9.96998 59.4569 9.81403 60.143 9.81403Z" fill="#F59505"></path>
<path d="M101.484 8.45544H98.6097V21.0462H101.484V8.45544Z" fill="#F59505"></path>
<path d="M106.983 5.65771H104.109V18.2485H106.983V5.65771Z" fill="#F59505"></path>
<path d="M96.8555 25.1681C97.1271 25.1681 97.3692 25.2153 97.5817 25.3098C97.7942 25.3983 97.9802 25.5105 98.1396 25.6463L97.555 26.4345C97.4488 26.3341 97.3454 26.2633 97.2451 26.2219C97.1507 26.1747 97.0443 26.1511 96.9263 26.1511C96.7079 26.1511 96.516 26.2072 96.3506 26.3193C96.1913 26.4256 96.0673 26.5792 95.9787 26.7799C95.8901 26.9747 95.846 27.2049 95.846 27.4706C95.846 27.7362 95.8901 27.9695 95.9787 28.1702C96.0673 28.365 96.1883 28.5156 96.3419 28.6219C96.5013 28.7281 96.6813 28.7813 96.8821 28.7813C97.0356 28.7813 97.1832 28.7489 97.3249 28.6839C97.4666 28.6189 97.5935 28.5392 97.7056 28.4447L98.1927 29.2418C97.9801 29.4248 97.7469 29.5577 97.4931 29.6403C97.2392 29.7229 96.9913 29.7644 96.7492 29.7644C96.3477 29.7643 95.9846 29.6757 95.6599 29.4986C95.3352 29.3155 95.0755 29.0528 94.8807 28.7104C94.6918 28.368 94.5973 27.9547 94.5973 27.4706C94.5973 26.9865 94.7036 26.5733 94.9161 26.2308C95.1286 25.8884 95.4061 25.6257 95.7485 25.4426C96.091 25.2597 96.46 25.1681 96.8555 25.1681ZM101.202 25.1681C101.568 25.1681 101.911 25.2597 102.229 25.4426C102.554 25.6257 102.817 25.8884 103.017 26.2308C103.219 26.5733 103.318 26.9865 103.318 27.4706C103.318 27.9547 103.219 28.368 103.017 28.7104C102.817 29.0528 102.554 29.3155 102.229 29.4986C101.911 29.6757 101.568 29.7644 101.202 29.7644C100.83 29.7644 100.482 29.6757 100.157 29.4986C99.8383 29.3155 99.5785 29.0529 99.3778 28.7104C99.1771 28.368 99.0766 27.9547 99.0766 27.4706C99.0766 26.9865 99.1771 26.5733 99.3778 26.2308C99.5785 25.8884 99.8383 25.6257 100.157 25.4426C100.482 25.2597 100.83 25.1681 101.202 25.1681ZM80.5158 28.2056C80.7343 28.2056 80.9114 28.2795 81.0472 28.427C81.1889 28.5747 81.2597 28.7606 81.2597 28.985C81.2597 29.2034 81.1889 29.3894 81.0472 29.5429C80.9114 29.6905 80.7342 29.7643 80.5158 29.7643C80.3092 29.7642 80.1321 29.6905 79.9846 29.5429C79.8429 29.3894 79.7719 29.2034 79.7719 28.985C79.7719 28.7606 79.8429 28.5747 79.9846 28.427C80.1321 28.2795 80.3092 28.2056 80.5158 28.2056ZM92.6224 28.2056C92.8408 28.2056 93.018 28.2795 93.1538 28.427C93.2955 28.5747 93.3663 28.7606 93.3663 28.985C93.3663 29.2034 93.2955 29.3894 93.1538 29.5429C93.018 29.6905 92.8408 29.7643 92.6224 29.7643C92.4158 29.7642 92.2387 29.6905 92.0911 29.5429C91.9494 29.3894 91.8785 29.2034 91.8785 28.985C91.8785 28.7606 91.9494 28.5747 92.0911 28.427C92.2387 28.2795 92.4157 28.2056 92.6224 28.2056ZM59.6709 27.382C59.7063 27.5946 59.7388 27.8101 59.7683 28.0285C59.8037 28.2411 59.8393 28.4566 59.8747 28.675H59.91C59.9514 28.4566 59.9927 28.2411 60.0341 28.0285C60.0753 27.8101 60.1226 27.5946 60.1757 27.382L60.6893 25.2744H61.752L62.2745 27.382C62.3276 27.5946 62.3749 27.8101 62.4162 28.0285C62.4635 28.2411 62.5077 28.4566 62.549 28.675H62.5845C62.6258 28.4566 62.6613 28.2411 62.6907 28.0285C62.7202 27.8101 62.7558 27.5946 62.7971 27.382L63.2487 25.2744H64.3735L63.3018 29.658H61.876L61.4421 27.816C61.4007 27.6094 61.3594 27.4027 61.3181 27.1961C61.2827 26.9895 61.2442 26.7681 61.203 26.5319H61.1675C61.1263 26.7681 61.0879 26.9895 61.0525 27.1961C61.0171 27.4027 60.9757 27.6094 60.9284 27.816L60.5123 29.658H59.1218L58.006 25.2744H59.2104L59.6709 27.382ZM66.8142 27.382C66.8497 27.5946 66.8821 27.8101 66.9115 28.0285C66.947 28.2411 66.9825 28.4566 67.0179 28.675H67.0533C67.0946 28.4566 67.136 28.2411 67.1773 28.0285C67.2187 27.8101 67.2658 27.5946 67.3189 27.382L67.8327 25.2744H68.8953L69.4179 27.382C69.471 27.5946 69.5182 27.8101 69.5595 28.0285C69.6067 28.2411 69.651 28.4566 69.6923 28.675H69.7278C69.7691 28.4566 69.8045 28.2411 69.834 28.0285C69.8636 27.8101 69.899 27.5946 69.9403 27.382L70.3919 25.2744H71.5167L70.4451 29.658H69.0193L68.5853 27.816C68.544 27.6094 68.5027 27.4027 68.4614 27.1961C68.426 26.9895 68.3876 26.7681 68.3462 26.5319H68.3109C68.2695 26.7681 68.2312 26.9895 68.1957 27.1961C68.1603 27.4027 68.119 27.6094 68.0718 27.816L67.6555 29.658H66.2652L65.1493 25.2744H66.3536L66.8142 27.382ZM73.9573 27.382C73.9927 27.5946 74.0251 27.8101 74.0547 28.0285C74.0901 28.2411 74.1255 28.4566 74.161 28.675H74.1964C74.2377 28.4566 74.2791 28.2411 74.3204 28.0285C74.3617 27.8101 74.4089 27.5946 74.4621 27.382L74.9757 25.2744H76.0384L76.5609 27.382C76.614 27.5946 76.6613 27.8101 76.7026 28.0285C76.7499 28.2411 76.7941 28.4566 76.8354 28.675H76.8708C76.9122 28.4566 76.9476 28.2411 76.9771 28.0285C77.0066 27.8101 77.0421 27.5946 77.0834 27.382L77.535 25.2744H78.6598L77.5882 29.658H76.1624L75.7284 27.816C75.6871 27.6094 75.6458 27.4027 75.6045 27.1961C75.569 26.9895 75.5306 26.7681 75.4893 26.5319H75.4539C75.4125 26.7681 75.3743 26.9895 75.3389 27.1961C75.3035 27.4027 75.262 27.6094 75.2148 27.816L74.7986 29.658H73.4082L72.2924 25.2744H73.4968L73.9573 27.382ZM84.9703 28.675H86.0419V29.658H82.5172V28.675H83.757V25.2832H82.7031V24.5305C82.9984 24.4714 83.2523 24.4036 83.4648 24.3268C83.6773 24.2442 83.881 24.1468 84.0759 24.0345H84.9703V28.675ZM89.5535 28.675H90.625V29.658H87.1004V28.675H88.3402V25.2832H87.2863V24.5305C87.5816 24.4714 87.8355 24.4036 88.048 24.3268C88.2605 24.2442 88.4642 24.1468 88.659 24.0345H89.5535V28.675ZM109.63 25.1681C110.103 25.1681 110.448 25.3246 110.667 25.6375C110.885 25.9503 110.995 26.3813 110.995 26.9304V29.658H109.781V27.0898C109.781 26.7592 109.734 26.529 109.639 26.3991C109.551 26.2691 109.406 26.2042 109.205 26.2042C109.082 26.2042 108.955 26.2427 108.825 26.3193C108.694 26.3961 108.553 26.5142 108.399 26.6736V29.658H107.187V27.0898C107.187 26.7592 107.139 26.529 107.045 26.3991C106.956 26.2692 106.811 26.2042 106.611 26.2042C106.369 26.2042 106.1 26.3606 105.805 26.6736V29.658H104.591V25.2744H105.584L105.672 25.85H105.707C105.885 25.6669 106.08 25.5075 106.292 25.3718C106.504 25.236 106.752 25.1681 107.036 25.1681C107.349 25.1681 107.602 25.236 107.798 25.3718C107.992 25.5017 108.143 25.6847 108.248 25.9208C108.444 25.7142 108.65 25.5371 108.869 25.3895C109.093 25.2419 109.347 25.1681 109.63 25.1681ZM101.202 26.1511C101.007 26.1511 100.845 26.2072 100.715 26.3193C100.585 26.4256 100.488 26.5792 100.423 26.7799C100.358 26.9747 100.325 27.2049 100.325 27.4706C100.325 27.7362 100.358 27.9695 100.423 28.1702C100.488 28.365 100.585 28.5156 100.715 28.6219C100.845 28.7281 101.007 28.7813 101.202 28.7813C101.391 28.7813 101.55 28.7281 101.68 28.6219C101.81 28.5156 101.908 28.365 101.973 28.1702C102.037 27.9695 102.07 27.7362 102.07 27.4706C102.07 27.2049 102.037 26.9747 101.973 26.7799C101.908 26.5792 101.81 26.4256 101.68 26.3193C101.55 26.2071 101.391 26.1511 101.202 26.1511ZM55.4365 27.1542H43.5616V26.7517H55.4365V27.1542ZM125.679 27.1542H113.804V26.7517H125.679V27.1542Z" fill="black"></path>
</g>
<defs>
<clipPath id="clip0_61386_13444">
<rect width="126.9" height="29.8884" fill="white" transform="translate(2 2.70001)"></rect>
</clipPath>
</defs>
</svg>